HIERARCHY
ROOT Hips
{
	OFFSET 0.00000 0.00000 0.00000
	CHANNELS 6 Xposition Yposition Zposition Zrotation Yrotation Xrotation 
	JOINT RightUpLegDummy
	{
		OFFSET 0 0 0
		CHANNELS 3 Zrotation Yrotation Xrotation
		JOINT RightUpLeg
		{
			OFFSET -3.52197 -3.41223 0.04002
			CHANNELS 3 Zrotation Yrotation Xrotation
			JOINT RightLeg
			{
				OFFSET 0.00006 -17.42390 1.60435
				CHANNELS 3 Zrotation Yrotation Xrotation
				JOINT RightFoot
				{
					OFFSET 0.06153 -16.50078 -1.63901
					CHANNELS 3 Zrotation Yrotation Xrotation
					JOINT RightToes
					{
						OFFSET 0.00298 -1.73825 3.34613
						CHANNELS 3 Zrotation Yrotation Xrotation
						End Site
						{
							OFFSET 0.00480 -0.05416 3.85043
						}
					}
				}
			}
		}
	}
	JOINT SpineDummy
	{
		OFFSET 0 0 0
		CHANNELS 3 Zrotation Yrotation Xrotation
		JOINT Spine
		{
			OFFSET 0.00000 4.68130 0.00000
			CHANNELS 3 Zrotation Yrotation Xrotation
			JOINT Spine1
			{
				OFFSET -0.00000 10.10138 0.05002
				CHANNELS 3 Zrotation Yrotation Xrotation
				JOINT HEadDummy
				{
					OFFSET 0 0 0
					CHANNELS 3 Zrotation Yrotation Xrotation
					JOINT Head
					{
						OFFSET -0.00000 3.43865 0.00438
						CHANNELS 3 Zrotation Yrotation Xrotation
						End Site
						{
							OFFSET -0.11417 5.02924 0.98962
						}
					}
				}
				JOINT LeftShoulder1Dummy
				{
					OFFSET 0 0 0
					CHANNELS 3 Zrotation Yrotation Xrotation
					JOINT LeftShoulder1
					{
						OFFSET 3.53937 -0.14262 -0.08662
						CHANNELS 3 Zrotation Yrotation Xrotation
						JOINT LeftArm
						{
							OFFSET 4.04833 -0.00133 0.12681
							CHANNELS 3 Zrotation Yrotation Xrotation
							JOINT LeftForeArm
							{
								OFFSET 10.33880 -0.01036 -0.55515
								CHANNELS 3 Zrotation Yrotation Xrotation
								JOINT LeftHand
								{
									OFFSET 8.69677 0.07543 0.40060
									CHANNELS 3 Zrotation Yrotation Xrotation
									End Site
									{
										OFFSET 5.28377 -0.21905 0.59205
									}
								}
							}
						}
					}
				}
				JOINT RightShoulderDummy
				{
					OFFSET 0 0 0
					CHANNELS 3 Zrotation Yrotation Xrotation
					JOINT RightShoulder
					{
						OFFSET -3.53937 -0.14262 -0.08660
						CHANNELS 3 Zrotation Yrotation Xrotation
						JOINT RightArm
						{
							OFFSET -4.04833 -0.00133 0.12683
							CHANNELS 3 Zrotation Yrotation Xrotation
							JOINT RightForeArm
							{
								OFFSET -10.37987 -0.01039 -0.55511
								CHANNELS 3 Zrotation Yrotation Xrotation
								JOINT RightHand
								{
									OFFSET -8.67398 0.07538 0.40058
									CHANNELS 3 Zrotation Yrotation Xrotation
									End Site
									{
										OFFSET -5.24810 -0.21916 0.59204
									}
								}
							}
						}
					}
				}
			}
		}
	}
	JOINT LeftUpLegDummy
	{
		OFFSET 0 0 0
		CHANNELS 3 Zrotation Yrotation Xrotation
		JOINT LeftUpLeg
		{
			OFFSET 3.52197 -3.41223 0.04002
			CHANNELS 3 Zrotation Yrotation Xrotation
			JOINT LeftLeg
			{
				OFFSET -0.00012 -17.42399 1.60337
				CHANNELS 3 Zrotation Yrotation Xrotation
				JOINT LeftFoot
				{
					OFFSET -0.09972 -16.50070 -1.63802
					CHANNELS 3 Zrotation Yrotation Xrotation
					JOINT LeftToes
					{
						OFFSET -0.01575 -1.73823 3.34611
						CHANNELS 3 Zrotation Yrotation Xrotation
						End Site
						{
							OFFSET 0.03150 -0.01868 3.85031
						}
					}
				}
			}
		}
	}
}
MOTION
Frames: 17
Frame Time: 0.033333
36.5177 38.9276 -56.9631 2.7458 -41.3361 -3.8317 0.0000 0.0000 0.0000 2.1975 -1.3887 5.6041 -2.7265 -4.3007 18.1995 -3.4631 -0.3340 -19.9344 0.0000 -0.0000 0.0000 0.0000 0.0000 0.0000 0.8572 1.4489 9.4111 0.4526 1.4488 -1.9371 -0.0000 0.0000 -0.0000 0.7254 0.3324 0.1269 -0.0000 0.0000 -0.0000 -34.5657 -2.5524 2.4591 -43.2276 -13.7540 -17.2183 -11.1060 5.2690 42.5889 14.6276 -4.0115 -1.1546 -0.0000 0.0000 -0.0000 34.3659 5.1052 3.4766 39.0460 7.1218 -16.5221 10.7356 0.5524 22.8900 -10.9901 2.3422 -0.7129 0.0000 0.0000 0.0000 -4.0358 7.6979 -22.9118 5.2955 10.0917 20.4626 -1.9776 0.1280 -6.0594 0.0000 0.0000 -0.0000
36.1405 38.9547 -56.4611 2.4454 -41.4622 -3.2820 0.0000 0.0000 0.0000 2.2707 -1.5339 6.9732 -2.4923 -4.0836 16.6417 -3.2271 -0.3041 -19.5527 0.0000 -0.0000 0.0000 0.0000 0.0000 0.0000 1.1155 1.4805 9.3904 0.4080 1.4984 -2.0045 -0.0000 0.0000 -0.0000 0.5678 0.5844 0.8438 -0.0000 0.0000 -0.0000 -34.4947 -2.5252 2.4437 -43.0549 -13.4736 -17.9104 -10.7745 5.2581 43.1801 14.5233 -3.8425 -1.1260 -0.0000 0.0000 -0.0000 34.4268 5.1137 3.4851 39.0697 7.3961 -16.3766 10.7578 0.7451 22.9100 -10.8355 2.3757 -0.7054 0.0000 0.0000 0.0000 -3.7623 6.4414 -23.1821 3.6573 10.1801 14.3859 -2.0610 0.1494 -4.5532 0.0000 0.0000 -0.0000
35.7439 39.0225 -55.9073 2.1243 -41.9009 -2.7408 0.0000 0.0000 0.0000 2.1479 -1.8553 8.5918 -1.9916 -3.3602 14.7070 -2.9557 -0.2571 -18.6278 0.0000 -0.0000 0.0000 0.0000 0.0000 0.0000 1.3893 1.6115 9.2802 0.2827 1.6629 -1.8869 -0.0000 0.0000 -0.0000 0.5005 0.7928 1.3561 -0.0000 0.0000 -0.0000 -34.4707 -2.5089 2.4356 -42.8655 -13.0918 -18.6780 -10.4088 5.2433 43.9236 14.4387 -3.9054 -1.1266 -0.0000 0.0000 -0.0000 34.5643 5.1301 3.5037 39.0629 7.6443 -16.2339 10.7956 0.9622 22.7965 -10.6051 2.4899 -0.6994 0.0000 0.0000 0.0000 -1.6421 2.2129 -22.8396 1.7222 13.0163 8.3546 -2.0483 0.1661 -3.1038 0.0000 0.0000 -0.0000
35.3009 39.0649 -55.2743 1.8712 -42.5983 -2.3161 0.0000 0.0000 0.0000 1.8296 -2.1848 10.1166 -1.4659 -2.3504 13.3965 -2.5726 -0.2060 -17.6095 0.0000 -0.0000 0.0000 0.0000 0.0000 0.0000 1.5364 1.8038 9.0358 0.1687 1.8809 -1.5707 -0.0000 0.0000 -0.0000 0.5100 1.0827 1.6857 -0.0000 0.0000 -0.0000 -34.5819 -2.5162 2.4454 -42.5434 -12.6636 -19.5477 -9.9854 5.2219 44.9189 14.2852 -3.9131 -1.1151 -0.0000 0.0000 -0.0000 34.6573 5.1434 3.5172 39.1875 7.8708 -16.0467 10.8442 1.1527 22.7787 -10.5726 2.7244 -0.7168 0.0000 0.0000 0.0000 -0.2467 -0.7645 -22.2510 0.5869 14.2334 3.1300 -2.2246 0.1917 -2.1519 0.0000 0.0000 -0.0000
34.7795 39.0264 -54.5347 1.5160 -43.2569 -1.8820 0.0000 0.0000 0.0000 1.5296 -2.4308 11.2995 -1.0437 -1.4217 13.3312 -1.6638 -0.1446 -16.9755 0.0000 -0.0000 0.0000 0.0000 0.0000 0.0000 1.6658 1.9131 8.6420 0.0474 2.0109 -1.2085 -0.0000 0.0000 -0.0000 0.6205 1.4422 1.9402 -0.0000 0.0000 -0.0000 -34.6195 -2.5005 2.4413 -42.2807 -12.1071 -20.3773 -9.5755 5.2011 45.8614 13.9054 -3.7591 -1.0669 -0.0000 0.0000 -0.0000 34.6964 5.1556 3.5256 39.5109 8.0078 -15.9165 10.8635 1.1484 22.9276 -10.7452 2.8326 -0.7381 0.0000 0.0000 0.0000 -0.1500 -1.1959 -21.6861 0.5025 13.0126 0.6108 -2.8613 0.2362 -2.4610 0.0000 0.0000 -0.0000
34.1903 38.9506 -53.6826 1.0760 -43.9051 -1.5564 0.0000 0.0000 0.0000 1.1773 -2.5829 12.4274 -0.6209 -0.5156 14.0901 -0.3533 -0.0754 -16.2210 0.0000 -0.0000 0.0000 0.0000 0.0000 0.0000 1.8849 1.9867 8.1092 -0.2057 2.1277 -0.8001 -0.0000 0.0000 -0.0000 0.7725 1.5730 2.2550 -0.0000 0.0000 -0.0000 -34.5506 -2.4694 2.4245 -42.1313 -11.3946 -21.1731 -9.1838 5.1823 46.6990 13.7018 -3.7273 -1.0471 -0.0000 0.0000 -0.0000 34.7779 5.1736 3.5402 39.8728 7.9083 -15.9467 10.8513 0.9145 23.0241 -10.8903 2.5576 -0.7247 0.0000 0.0000 0.0000 -0.1354 -1.3555 -21.1006 0.8934 12.2867 1.1010 -3.3088 0.2631 -3.1540 0.0000 0.0000 -0.0000
33.5495 38.8893 -52.7235 0.9803 -44.7894 -1.7633 0.0000 0.0000 0.0000 0.3823 -2.5755 13.6459 -0.1130 0.5019 15.5734 0.7606 -0.0318 -14.6219 0.0000 -0.0000 0.0000 0.0000 0.0000 0.0000 1.8872 2.1867 7.5980 -0.5130 2.3805 -0.3694 -0.0000 0.0000 -0.0000 0.8751 1.4232 2.6926 -0.0000 0.0000 -0.0000 -34.6472 -2.4710 2.4310 -41.8730 -10.5712 -22.0693 -8.7419 5.1611 47.6160 13.8338 -3.8284 -1.0686 -0.0000 0.0000 -0.0000 34.9133 5.1927 3.5599 40.1473 7.3946 -16.0706 10.8487 0.7218 22.9033 -10.9404 2.0417 -0.6835 0.0000 0.0000 0.0000 -0.4367 -1.4861 -20.3168 1.6008 12.2699 3.3372 -2.6640 0.2181 -2.5270 0.0000 0.0000 -0.0000
32.8714 38.8549 -51.7078 1.5131 -45.6677 -2.5688 0.0000 0.0000 0.0000 -1.0378 -2.7255 14.5099 0.4714 1.5149 18.1231 1.9229 -0.0327 -12.0816 0.0000 -0.0000 0.0000 0.0000 0.0000 0.0000 1.2105 2.4364 7.1340 -0.5546 2.6311 -0.0696 -0.0000 0.0000 -0.0000 0.9063 1.5952 3.2803 -0.0000 0.0000 -0.0000 -34.9443 -2.4870 2.4556 -41.4830 -9.7158 -23.0403 -8.2438 5.1402 48.5236 13.3553 -3.5451 -1.0009 -0.0000 0.0000 -0.0000 35.0177 5.2034 3.5735 40.4316 6.3655 -16.1824 10.8600 0.8818 22.6763 -11.0107 1.7110 -0.6592 0.0000 0.0000 0.0000 -1.1021 -1.6422 -19.4837 2.2467 12.6276 5.9944 -1.3333 0.1292 -0.4965 0.0000 0.0000 -0.0000
32.1743 38.8327 -50.6985 2.3376 -45.9221 -3.4440 0.0000 0.0000 0.0000 -2.8877 -3.9331 14.4298 1.1286 2.5493 21.9579 4.1366 -0.1315 -8.6885 0.0000 -0.0000 0.0000 0.0000 0.0000 0.0000 -0.0403 2.4727 6.6299 -0.2468 2.6033 -0.0781 -0.0000 0.0000 -0.0000 0.9630 1.8095 4.0110 -0.0000 0.0000 -0.0000 -35.0517 -2.4652 2.4532 -41.2872 -9.0142 -23.8630 -7.7751 5.1239 49.2372 11.6481 -2.7280 -0.7928 -0.0000 0.0000 -0.0000 35.0690 5.2078 3.5799 40.8288 4.9215 -16.3614 10.8261 1.3517 22.4297 -11.0845 1.6946 -0.6623 0.0000 0.0000 0.0000 -1.8492 -1.5039 -18.8527 2.3344 12.5520 8.5695 -0.9425 0.0983 1.3152 0.0000 0.0000 -0.0000
31.5058 38.7853 -49.7248 2.9618 -45.4787 -4.0115 0.0000 0.0000 0.0000 -4.7827 -5.9469 12.9944 1.8489 3.1458 27.5789 7.2646 -0.5128 -3.6028 0.0000 -0.0000 0.0000 0.0000 0.0000 0.0000 -1.1794 2.2660 6.2724 0.0522 2.3406 -0.4189 -0.0000 0.0000 -0.0000 1.0168 1.2745 4.7272 -0.0000 0.0000 -0.0000 -34.7660 -2.4250 2.4195 -41.4327 -8.7302 -24.2928 -7.4635 5.1090 49.8385 9.9513 -2.1284 -0.6240 -0.0000 0.0000 -0.0000 35.1068 5.2135 3.5856 41.2315 3.3786 -16.7306 10.7208 1.8058 22.0299 -11.0048 1.7315 -0.6606 0.0000 0.0000 0.0000 -2.4575 -1.0703 -18.4288 1.9916 11.8499 11.2812 -1.9273 0.2091 1.7428 0.0000 0.0000 -0.0000
30.9169 38.6894 -48.7935 3.3765 -44.9795 -4.5811 0.0000 0.0000 0.0000 -6.3843 -7.4959 10.2223 2.1800 2.8140 35.0720 9.8754 -1.3456 4.3025 0.0000 -0.0000 0.0000 0.0000 0.0000 0.0000 -1.7557 2.0928 6.5152 0.0448 2.1677 -0.9821 -0.0000 0.0000 -0.0000 0.8929 0.6717 5.0596 -0.0000 0.0000 -0.0000 -34.4406 -2.4203 2.3980 -41.6168 -8.9733 -24.1556 -7.4718 5.0970 50.2393 9.7991 -2.4369 -0.6399 -0.0000 0.0000 -0.0000 35.1144 5.2195 3.5887 41.4354 2.1354 -17.1181 10.6276 2.0678 21.4864 -10.7629 1.7042 -0.6433 0.0000 0.0000 0.0000 -3.0761 -0.7475 -18.0097 1.8344 11.0526 14.3732 -2.4747 0.2616 0.9845 0.0000 0.0000 -0.0000
30.4202 38.5422 -47.9358 3.7611 -44.9128 -5.5267 0.0000 0.0000 0.0000 -7.3704 -7.5449 6.4980 1.2779 1.3517 43.4719 11.1505 -2.3264 12.7337 0.0000 -0.0000 0.0000 0.0000 0.0000 0.0000 -1.9552 2.1066 7.6652 -0.0924 2.1947 -1.6888 -0.0000 0.0000 -0.0000 0.4698 0.1954 4.8283 -0.0000 0.0000 -0.0000 -34.4585 -2.4388 2.4065 -41.5548 -9.5900 -23.4025 -7.9185 5.1051 49.8215 10.7661 -3.2434 -0.7734 -0.0000 0.0000 -0.0000 35.0518 5.2190 3.5830 41.3561 1.5240 -17.1509 10.6556 2.2259 21.1980 -10.5729 1.7699 -0.6371 0.0000 0.0000 0.0000 -3.8315 -0.6167 -17.5484 2.1151 10.5955 17.9466 -0.9729 0.0983 -0.5524 0.0000 0.0000 -0.0000
29.9428 38.4219 -47.1383 3.9254 -45.0926 -6.5839 0.0000 0.0000 0.0000 -7.4843 -6.5466 2.4655 -1.3653 -0.6844 51.1954 10.6343 -2.5787 16.5052 0.0000 -0.0000 0.0000 0.0000 0.0000 0.0000 -2.0394 2.1215 9.2713 -0.0406 2.1813 -2.2982 -0.0000 0.0000 -0.0000 -0.1157 0.4260 4.1751 -0.0000 0.0000 -0.0000 -34.7052 -2.4356 2.4201 -41.3626 -10.3765 -22.1976 -8.7022 5.1446 48.2026 11.5079 -3.6887 -0.8693 -0.0000 0.0000 -0.0000 34.9521 5.2107 3.5707 41.0818 1.6831 -16.7760 10.7801 2.3608 21.4876 -10.6359 1.9142 -0.6532 0.0000 0.0000 0.0000 -4.4656 -0.4462 -16.6300 2.5313 10.4486 21.0729 1.6643 -0.1108 -2.6045 0.0000 0.0000 -0.0000
29.3925 38.4339 -46.3245 3.5281 -45.1522 -7.1852 0.0000 0.0000 0.0000 -6.6850 -5.4473 -1.3945 -5.3227 -2.6150 56.7790 8.0370 -1.7705 13.9965 0.0000 -0.0000 0.0000 0.0000 0.0000 0.0000 -1.9350 1.9369 10.4405 0.2430 1.9310 -2.4735 -0.0000 0.0000 -0.0000 -0.6537 1.2448 3.6077 -0.0000 0.0000 -0.0000 -34.8524 -2.4273 2.4256 -41.2852 -11.3175 -20.8510 -9.5251 5.1974 46.0161 12.0197 -3.6425 -0.9054 -0.0000 0.0000 -0.0000 34.8566 5.1931 3.5551 40.7885 2.4251 -16.4066 10.8499 2.4711 22.0403 -10.8925 1.9536 -0.6728 0.0000 0.0000 0.0000 -4.6585 -0.1512 -14.7776 2.7834 10.2868 22.6211 3.3608 -0.1656 -4.7943 0.0000 0.0000 -0.0000
28.7728 38.5443 -45.4708 2.6029 -44.9705 -7.1527 0.0000 0.0000 0.0000 -5.2858 -4.4827 -4.9229 -9.1934 -4.1686 59.3473 5.0455 -0.8492 8.5201 0.0000 -0.0000 0.0000 0.0000 0.0000 0.0000 -1.5739 1.5674 10.8820 0.6500 1.4836 -2.3045 -0.0000 0.0000 -0.0000 -0.9941 1.9796 3.6433 -0.0000 0.0000 -0.0000 -34.8131 -2.4554 2.4347 -41.3462 -12.5351 -19.6121 -10.1566 5.2360 44.3177 13.0201 -3.5930 -0.9793 -0.0000 0.0000 -0.0000 34.7426 5.1645 3.5333 40.6176 3.2371 -16.3875 10.7833 2.7301 22.1557 -11.0584 1.9829 -0.6859 0.0000 0.0000 0.0000 -4.4494 0.1042 -12.4548 2.9142 9.8643 23.0227 3.6824 -0.1057 -6.8088 0.0000 0.0000 -0.0000
28.1279 38.6700 -44.6082 1.4905 -44.5807 -6.7719 0.0000 0.0000 0.0000 -3.7269 -3.3915 -8.1155 -11.2951 -5.2569 58.9885 3.1852 -0.4124 4.0852 0.0000 -0.0000 0.0000 0.0000 0.0000 0.0000 -1.1328 1.1263 10.9863 1.1501 0.9528 -2.1988 -0.0000 0.0000 -0.0000 -1.1379 2.2801 4.3950 -0.0000 0.0000 -0.0000 -34.6751 -2.5001 2.4445 -41.4394 -14.0906 -18.5861 -10.5616 5.2532 43.4711 14.0904 -3.8029 -1.0865 -0.0000 0.0000 -0.0000 34.6064 5.1327 3.5084 40.5822 3.6395 -16.5390 10.6812 3.4809 21.5056 -10.9561 2.2040 -0.6985 0.0000 0.0000 0.0000 -4.0604 0.3349 -10.2675 2.9086 9.1581 23.2177 3.8285 -0.0420 -8.5340 0.0000 0.0000 -0.0000
27.4762 38.7775 -43.7573 0.3944 -44.0594 -6.2985 0.0000 0.0000 0.0000 -2.2530 -2.1515 -10.8972 -11.5144 -6.0602 56.2351 2.2173 -0.2362 1.1055 0.0000 -0.0000 0.0000 0.0000 0.0000 0.0000 -0.7226 0.6692 11.0772 1.6978 0.3978 -2.2681 -0.0000 0.0000 -0.0000 -1.2157 2.4582 5.3962 -0.0000 0.0000 -0.0000 -34.4684 -2.5031 2.4331 -41.5411 -15.8920 -17.7616 -10.8161 5.2601 43.0824 14.2461 -4.1564 -1.1398 -0.0000 0.0000 -0.0000 34.5185 5.1144 3.4934 40.5774 3.6244 -16.3328 10.6842 4.7992 20.3404 -10.7445 2.4314 -0.7033 0.0000 0.0000 0.0000 -3.5368 0.7559 -8.2719 2.6345 8.2835 23.4694 4.3592 0.0148 -10.1256 0.0000 0.0000 -0.0000
